# xmcd
#
# Track frame offsets:
#	150
#	14812
#	28876
#	43949
#	58880
#	71362
#	87371
#	101631
#	118552
#	134198
#	153610
#	166882
#	181528
#	200930
#	219012
#	232557
#	257678
#	271558
#
# Disc length: 3797 seconds
#
# Revision: 1
# Processed by: cddbd v1.5.2PL0 Copyright (c) Steve Scherf et al.
# Submitted via: audiograbber 1.83.01
#
DISCID=fd0ed312
DTITLE=Various Artist - Promo Only Country July 2014
DYEAR=2014
DGENRE=Country
TTITLE0=Lady Antebellum - Bartender
TTITLE1=JT Hodges - Already High
TTITLE2=Eric Church - Cold One
TTITLE3=Brantley Gilbert Feat. Justin Moore and Thomas Rhett - Small Town Throwdo
TTITLE3=wn
TTITLE4=Sweetwater Rain - Tailspin
TTITLE5=Ryan Weaver - New Set Of Tires
TTITLE6=Cowboy Calvin - Cowboys Love Their Country
TTITLE7=Tim McGraw Feat. Faith Hill - Meanwhile Back At Mama's
TTITLE8=Kira Isabella - Quarterback
TTITLE9=Zac Brown Band - All Alright
TTITLE10=Tate Stevens - Better At Night
TTITLE11=Jerrod Niemann - Donkey (Radio Edit)
TTITLE12=Randy Houser - Like A Cowboy
TTITLE13=Ben Rue - I Can't Wait (Be My Wife)
TTITLE14=Dan and Shay - Show You Off
TTITLE15=Blackhawk - Brothers Of The Southland
TTITLE16=Allison Veltz - Bright Side
TTITLE17=Danny Boone - Fish Grease
EXTD=
EXTT0=
EXTT1=
EXTT2=
EXTT3=
EXTT4=
EXTT5=
EXTT6=
EXTT7=
EXTT8=
EXTT9=
EXTT10=
EXTT11=
EXTT12=
EXTT13=
EXTT14=
EXTT15=
EXTT16=
EXTT17=
PLAYORDER=
